<svg width="500" height="500" viewBox="0 0 500 500" fill="none" xmlns="http://www.w3.org/2000/svg">
<rect x="104.224" y="61.0045" width="339.497" height="421.067" fill="#2E3142" stroke="#2E3142" stroke-width="10"/>
<rect x="67.7328" y="23.4397" width="339.497" height="421.067" fill="white" stroke="#2E3142" stroke-width="10"/>
<path d="M196.114 38C196.114 35.8667 197.181 34.8 199.314 34.8H228.714C230.848 34.8 231.914 35.8667 231.914 38V47.2H265.714C267.848 47.2 268.914 48.2667 268.914 50.4V70.4C268.914 72.5333 267.848 73.6 265.714 73.6H231.914V80.4H260.914C263.048 80.4 264.114 81.4667 264.114 83.6V100.8C264.114 102.933 263.048 104 260.914 104H169.314C167.181 104 166.114 102.933 166.114 100.8V83.6C166.114 81.4667 167.181 80.4 169.314 80.4H196.114V73.6H164.714C162.581 73.6 161.514 72.5333 161.514 70.4V50.4C161.514 48.2667 162.581 47.2 164.714 47.2H196.114V38ZM151.914 39.4C154.048 39.4 155.114 40.4667 155.114 42.6V60C155.114 62.1333 154.048 63.2 151.914 63.2H93.3144C91.181 63.2 90.1144 62.1333 90.1144 60V42.6C90.1144 40.4667 91.181 39.4 93.3144 39.4H151.914ZM155.114 69C157.248 69 158.314 70.0667 158.314 72.2V92C158.314 94.1333 157.248 95.2 155.114 95.2H86.3144C84.181 95.2 83.1144 94.1333 83.1144 92V72.2C83.1144 70.0667 84.181 69 86.3144 69H155.114ZM151.914 101C154.048 101 155.114 102.067 155.114 104.2V120.4C155.114 122.533 154.048 123.6 151.914 123.6H93.3144C91.181 123.6 90.1144 122.533 90.1144 120.4V104.2C90.1144 102.067 91.181 101 93.3144 101H151.914ZM266.314 110.4C268.448 110.4 269.514 111.467 269.514 113.6V153.6C269.514 155.733 268.448 156.8 266.314 156.8H245.314V185.6C245.314 187.6 246.048 188.667 247.514 188.8C248.714 188.933 249.781 188.933 250.714 188.8C252.314 188.533 253.314 186.867 253.714 183.8C254.114 180.6 254.381 175.867 254.514 169.6C254.514 168.267 254.914 167.4 255.714 167C256.514 166.467 257.448 166.467 258.514 167L273.714 174.2C275.314 175 276.114 176.333 276.114 178.2C275.848 186.467 275.248 193.667 274.314 199.8C273.514 205.933 271.448 210.667 268.114 214C264.914 217.467 259.448 219.333 251.714 219.6C248.781 219.733 245.514 219.733 241.914 219.6C238.314 219.6 235.581 219.533 233.714 219.4C226.248 218.467 221.181 216.6 218.514 213.8C215.848 211 214.514 206.8 214.514 201.2V149.2C214.514 147.067 215.581 146 217.714 146H238.914V137.8H189.714V146H206.714C208.848 146 209.914 147.067 209.914 149.2C209.914 161.6 209.114 172.133 207.514 180.8C206.048 189.467 203.114 197 198.714 203.4C194.448 209.667 188.048 215.6 179.514 221.2C178.848 221.733 178.114 222 177.314 222C176.648 222 175.848 221.667 174.914 221L156.914 204.8V215.2C156.914 217.333 155.848 218.4 153.714 218.4H91.5144C89.381 218.4 88.3144 217.333 88.3144 215.2V160.8C88.3144 158.667 89.381 157.6 91.5144 157.6H153.714C155.848 157.6 156.914 158.667 156.914 160.8V194C162.248 191.2 166.448 188.2 169.514 185C172.581 181.8 174.781 178 176.114 173.6C177.581 169.067 178.448 163.533 178.714 157H162.314C160.181 157 159.114 155.933 159.114 153.8V113.6C159.114 111.467 160.181 110.4 162.314 110.4H266.314ZM151.914 129.2C154.048 129.2 155.114 130.267 155.114 132.4V148.6C155.114 150.733 154.048 151.8 151.914 151.8H93.3144C91.181 151.8 90.1144 150.733 90.1144 148.6V132.4C90.1144 130.267 91.181 129.2 93.3144 129.2H151.914ZM129.114 193.4V181.8H116.314V193.4H129.114Z" fill="#2E3142"/>
<path d="M266.322 351.71C266.322 350.376 266.655 349.51 267.322 349.11C268.122 348.576 269.055 348.576 270.122 349.11L290.122 358.11C291.722 358.91 292.522 360.11 292.522 361.71C292.522 366.11 292.389 370.843 292.122 375.91C291.855 380.976 291.189 386.043 290.122 391.11C289.189 396.043 287.589 400.576 285.322 404.71C283.055 408.843 279.989 412.176 276.122 414.71C272.389 417.11 267.522 418.31 261.522 418.31C260.989 418.31 259.389 418.31 256.722 418.31C254.055 418.31 251.322 418.31 248.522 418.31C245.855 418.31 243.922 418.31 242.722 418.31C234.722 418.043 228.855 416.043 225.122 412.31C221.522 408.443 219.722 403.043 219.722 396.11V331.91C219.189 332.043 218.655 332.176 218.122 332.31C217.722 332.31 217.322 332.31 216.922 332.31L210.922 333.51C210.522 333.51 210.055 333.576 209.522 333.71C209.122 333.71 208.655 333.776 208.122 333.91C205.989 334.31 204.789 333.443 204.522 331.31L201.122 300.31C200.989 298.043 201.789 296.843 203.522 296.71L219.722 294.11V251.11C219.722 248.976 220.789 247.91 222.922 247.91H253.722C255.855 247.91 256.922 248.976 256.922 251.11V287.91C261.989 287.11 266.989 286.243 271.922 285.31C276.989 284.376 282.122 283.443 287.322 282.51V257.51C287.322 255.376 288.389 254.31 290.522 254.31H385.322C387.455 254.31 388.522 255.376 388.522 257.51C388.522 261.643 388.522 267.11 388.522 273.91C388.655 280.71 388.722 288.376 388.722 296.91C388.855 305.31 388.855 314.043 388.722 323.11C388.722 332.043 388.589 340.843 388.322 349.51C388.189 358.176 387.922 366.043 387.522 373.11C386.722 387.11 385.389 398.176 383.522 406.31C381.655 414.443 378.922 420.443 375.322 424.31C371.722 428.176 367.055 430.643 361.322 431.71C355.722 432.91 348.789 433.443 340.522 433.31C338.522 433.31 337.255 432.443 336.722 430.71L326.722 402.71C324.589 408.176 322.189 413.443 319.522 418.51C316.989 423.576 314.189 428.443 311.122 433.11C310.055 434.576 308.655 435.043 306.922 434.51L275.922 425.11C274.589 424.71 273.922 424.043 273.922 423.11C273.922 422.31 274.255 421.576 274.922 420.91C282.255 412.776 287.989 403.51 292.122 393.11C296.255 382.576 299.255 371.643 301.122 360.31C303.122 348.976 304.389 337.843 304.922 326.91C305.455 315.843 305.722 305.776 305.722 296.71V289.71H291.922L294.722 316.31C294.989 318.31 294.122 319.51 292.122 319.91L256.922 325.71V380.71C256.922 382.31 257.855 383.11 259.722 383.11H261.522C262.989 383.11 264.055 381.376 264.722 377.91C265.389 374.443 265.789 370.31 265.922 365.51C266.189 360.576 266.322 355.976 266.322 351.71ZM341.322 302.51C341.322 340.776 337.122 372.243 328.722 396.91C334.055 397.043 338.255 396.576 341.322 395.51C344.522 394.443 346.922 392.043 348.522 388.31C350.122 384.576 351.189 378.843 351.722 371.11C352.122 364.71 352.389 357.576 352.522 349.71C352.655 341.843 352.655 333.976 352.522 326.11C352.522 318.11 352.455 310.91 352.322 304.51C352.322 297.976 352.322 293.043 352.322 289.71H341.322V302.51Z" fill="#2E3142"/>
</svg>
